<svg xmlns="http://www.w3.org/2000/svg" viewBox="0 0 1200 1600" width="1200" height="1600" preserveAspectRatio="xMidYMid slice">
<defs>
<filter id="grain" x="0" y="0" width="100%" height="100%"><feTurbulence type="fractalNoise" baseFrequency=".9" numOctaves="2" stitchTiles="stitch"/><feColorMatrix values="0 0 0 0 0  0 0 0 0 0  0 0 0 0 0  0 0 0 .07 0"/></filter>
<filter id="blur8"><feGaussianBlur stdDeviation="8"/></filter>
<filter id="blur30"><feGaussianBlur stdDeviation="30"/></filter>
<filter id="blur80"><feGaussianBlur stdDeviation="80"/></filter>
<linearGradient id="bg" x1="0" y1="0" x2="0.3" y2="1"><stop offset="0" stop-color="#2fd4ff" stop-opacity="1"/><stop offset="0.45" stop-color="#2b5fb8" stop-opacity="1"/><stop offset="1" stop-color="#0b0f2e" stop-opacity="1"/></linearGradient><radialGradient id="halo" cx="0.5" cy="0.5" r="0.5"><stop offset="0" stop-color="#9ff3ff" stop-opacity="0.95"/><stop offset="0.5" stop-color="#9ff3ff" stop-opacity="0.35"/><stop offset="1" stop-color="#9ff3ff" stop-opacity="0"/></radialGradient><linearGradient id="rim" x1="0" y1="0" x2="1" y2="0"><stop offset="0" stop-color="#b8f6ff" stop-opacity="1"/><stop offset="1" stop-color="#b8f6ff" stop-opacity="0"/></linearGradient><linearGradient id="body" x1="0" y1="0" x2="0" y2="1"><stop offset="0" stop-color="#0b1330" stop-opacity="1"/><stop offset="1" stop-color="#05081a" stop-opacity="1"/></linearGradient>
</defs>
<rect width="1200" height="1600" fill="url(#bg)"/><circle cx="624" cy="640" r="700" fill="url(#halo)"/><rect x="154.5" y="-100" width="145.6" height="1800" fill="#e8fbff" opacity="0.1" transform="rotate(-14 154.5 800)"/><rect x="436.7" y="-100" width="65.5" height="1800" fill="#e8fbff" opacity="0.1" transform="rotate(-15.1 436.7 800)"/><rect x="329.1" y="-100" width="43" height="1800" fill="#e8fbff" opacity="0.1" transform="rotate(-12.7 329.1 800)"/><rect x="741.3" y="-100" width="112.8" height="1800" fill="#e8fbff" opacity="0.1" transform="rotate(-14 741.3 800)"/><rect x="140.8" y="-100" width="143.1" height="1800" fill="#e8fbff" opacity="0.1" transform="rotate(-16.5 140.8 800)"/><rect x="924.7" y="-100" width="42" height="1800" fill="#e8fbff" opacity="0.1" transform="rotate(-14.4 924.7 800)"/><rect x="862.8" y="-100" width="41.9" height="1800" fill="#e8fbff" opacity="0.1" transform="rotate(-11.4 862.8 800)"/><g opacity=".55"><path d="M133.5 1600 Q172 1000 279.5 400 L288.5 400 Q193 1000 154.5 1600 Z" fill="#16336e"/><path d="M284 400 Q157.8 315.9 31.7 462 Q157.8 342.9 284 400 Z" fill="#16336e"/><path d="M284 400 Q182.9 293.6 81.9 425.6 Q182.9 320.6 284 400 Z" fill="#16336e"/><path d="M284 400 Q197.8 239.5 111.7 381.3 Q197.8 266.5 284 400 Z" fill="#16336e"/><path d="M284 400 Q248.8 249.6 213.6 367.8 Q248.8 276.6 284 400 Z" fill="#16336e"/><path d="M284 400 Q297 209.4 310 347.6 Q297 236.4 284 400 Z" fill="#16336e"/><path d="M284 400 Q351.1 247.3 418.3 377.3 Q351.1 274.3 284 400 Z" fill="#16336e"/><path d="M284 400 Q375.7 282.8 467.3 411.6 Q375.7 309.8 284 400 Z" fill="#16336e"/><path d="M284 400 Q364.9 312.4 445.7 428.1 Q364.9 339.4 284 400 Z" fill="#16336e"/><path d="M284 400 Q393.4 360.5 502.8 498.6 Q393.4 387.5 284 400 Z" fill="#16336e"/><path d="M1070.9 1600 Q1048 1075 916.1 550 L923.9 550 Q1066.2 1075 1089.1 1600 Z" fill="#16336e"/><path d="M920 550 Q812.6 467.4 705.3 593.3 Q812.6 490.8 920 550 Z" fill="#16336e"/><path d="M920 550 Q821.3 452.8 722.6 575.2 Q821.3 476.2 920 550 Z" fill="#16336e"/><path d="M920 550 Q839.8 417.7 759.6 540.4 Q839.8 441.1 920 550 Z" fill="#16336e"/><path d="M920 550 Q900.5 412.7 881.1 516.9 Q900.5 436.1 920 550 Z" fill="#16336e"/><path d="M920 550 Q937.7 387.4 955.4 506.2 Q937.7 410.8 920 550 Z" fill="#16336e"/><path d="M920 550 Q986.4 415.6 1052.8 532.7 Q986.4 439 920 550 Z" fill="#16336e"/><path d="M920 550 Q989.5 448.7 1058.9 554.5 Q989.5 472.1 920 550 Z" fill="#16336e"/><path d="M920 550 Q1023.6 467.3 1127.2 590.7 Q1023.6 490.7 920 550 Z" fill="#16336e"/><path d="M920 550 Q1030 510.5 1140 639.7 Q1030 533.9 920 550 Z" fill="#16336e"/></g><path d="M510 850.0000000000001 L512 920.0000000000001 Q180 970.0000000000001 80 1240 L40 1600 L1160 1600 L1120 1240 Q1020 970.0000000000001 688 920.0000000000001 L690 850.0000000000001 Z" fill="url(#body)"/><ellipse cx="600" cy="712.0000000000001" rx="137.6" ry="172.8" fill="url(#body)"/><path d="M456 696.0000000000001 Q440 512.0000000000001 600 516.8000000000002 Q768 520.0000000000001 744 688.0000000000001 Q696 560.0000000000001 568 576.0000000000001 Q488 584.0000000000001 456 696.0000000000001 Z" fill="url(#body)"/><path d="M512 920.0000000000001 L600 1140 L688 920.0000000000001" fill="none" stroke="#9ff3ff" stroke-width="4" opacity=".6"/><path d="M472 776.0000000000001 Q600 928.0000000000001 728 776.0000000000001 Q696 880.0000000000001 600 888.0000000000001 Q504 880.0000000000001 472 776.0000000000001 Z" fill="#05081a"/><path d="M728 616.0000000000001 Q763.2 712.0000000000001 712 840.0000000000001" stroke="#b8f6ff" stroke-width="8" fill="none" opacity=".9" filter="url(#blur8)"/><path d="M700 925.0000000000001 Q1020 975.0000000000001 1115 1240" stroke="#b8f6ff" stroke-width="10" fill="none" opacity=".85" filter="url(#blur8)"/><path d="M472 648.0000000000001 Q440 744.0000000000001 504 856.0000000000001" stroke="#ff9a5b" stroke-width="6" fill="none" opacity=".7" filter="url(#blur8)"/><rect width="1200" height="1600" fill="url(#halo)" opacity=".08"/>
<rect width="1200" height="1600" filter="url(#grain)"/>
</svg>