<svg xmlns="http://www.w3.org/2000/svg" viewBox="0 0 1920 1080" width="1920" height="1080" preserveAspectRatio="xMidYMid slice">
<defs>
<filter id="grain" x="0" y="0" width="100%" height="100%"><feTurbulence type="fractalNoise" baseFrequency=".9" numOctaves="2" stitchTiles="stitch"/><feColorMatrix values="0 0 0 0 0  0 0 0 0 0  0 0 0 0 0  0 0 0 .07 0"/></filter>
<filter id="blur8"><feGaussianBlur stdDeviation="8"/></filter>
<filter id="blur30"><feGaussianBlur stdDeviation="30"/></filter>
<filter id="blur80"><feGaussianBlur stdDeviation="80"/></filter>
<linearGradient id="sky" x1="0" y1="0" x2="0" y2="1"><stop offset="0" stop-color="#1b0b3a" stop-opacity="1"/><stop offset="0.35" stop-color="#5a1a6e" stop-opacity="1"/><stop offset="0.62" stop-color="#e8437a" stop-opacity="1"/><stop offset="0.8" stop-color="#ff8a5b" stop-opacity="1"/><stop offset="1" stop-color="#ffc27a" stop-opacity="1"/></linearGradient><linearGradient id="sea" x1="0" y1="0" x2="0" y2="1"><stop offset="0" stop-color="#6b2a7a" stop-opacity="1"/><stop offset="0.4" stop-color="#2c1650" stop-opacity="1"/><stop offset="1" stop-color="#0c0620" stop-opacity="1"/></linearGradient><radialGradient id="sun" cx="0.5" cy="0.5" r="0.5"><stop offset="0" stop-color="#fff8e1" stop-opacity="1"/><stop offset="0.35" stop-color="#ffd08a" stop-opacity="1"/><stop offset="1" stop-color="#ffd08a" stop-opacity="0"/></radialGradient><radialGradient id="glow" cx="0.5" cy="0.5" r="0.5"><stop offset="0" stop-color="#ff6d8a" stop-opacity="0.85"/><stop offset="1" stop-color="#ff6d8a" stop-opacity="0"/></radialGradient><linearGradient id="refl" x1="0" y1="0" x2="0" y2="1"><stop offset="0" stop-color="#ffd08a" stop-opacity="0.9"/><stop offset="1" stop-color="#ffd08a" stop-opacity="0"/></linearGradient>
</defs>
<rect width="1920" height="1080" fill="url(#sky)"/><ellipse cx="960" cy="529.6" rx="900" ry="520" fill="url(#glow)"/><circle cx="1167.6" cy="197.6" r="1" fill="#fff" opacity="0.9"/><circle cx="1018.6" cy="203.5" r="0.5" fill="#fff" opacity="0.6"/><circle cx="806.4" cy="224.4" r="1.4" fill="#fff" opacity="0.8"/><circle cx="530.1" cy="132.6" r="0.6" fill="#fff" opacity="0.6"/><circle cx="1146.4" cy="193" r="0.6" fill="#fff" opacity="0.6"/><circle cx="1476.1" cy="106.3" r="1.4" fill="#fff" opacity="0.7"/><circle cx="1422.5" cy="327.3" r="0.5" fill="#fff" opacity="0.5"/><circle cx="666.7" cy="185.3" r="1.3" fill="#fff" opacity="0.7"/><circle cx="1631.4" cy="274.6" r="0.6" fill="#fff" opacity="0.6"/><circle cx="1615.3" cy="166.5" r="0.5" fill="#fff" opacity="0.7"/><circle cx="1409.7" cy="29.8" r="1" fill="#fff" opacity="0.8"/><circle cx="1218.8" cy="329.6" r="0.9" fill="#fff" opacity="0.6"/><circle cx="92.7" cy="245.5" r="0.8" fill="#fff" opacity="0.6"/><circle cx="1065.2" cy="116.5" r="0.8" fill="#fff" opacity="0.9"/><circle cx="1210" cy="208.8" r="0.5" fill="#fff" opacity="0.4"/><circle cx="1799.6" cy="285.6" r="0.9" fill="#fff" opacity="0.7"/><circle cx="1127.3" cy="145.6" r="1.5" fill="#fff" opacity="0.5"/><circle cx="1691" cy="101" r="0.4" fill="#fff" opacity="0.6"/><circle cx="1430.6" cy="182.3" r="0.5" fill="#fff" opacity="0.7"/><circle cx="1194.3" cy="296.1" r="1.1" fill="#fff" opacity="1"/><circle cx="1100.5" cy="163.1" r="1.1" fill="#fff" opacity="0.4"/><circle cx="1911.2" cy="237.9" r="1.2" fill="#fff" opacity="0.4"/><circle cx="1866.4" cy="115" r="1.2" fill="#fff" opacity="0.9"/><circle cx="1255.4" cy="23.9" r="1.3" fill="#fff" opacity="0.5"/><circle cx="1205.4" cy="75.4" r="1" fill="#fff" opacity="0.8"/><circle cx="1063.5" cy="127.5" r="0.5" fill="#fff" opacity="0.4"/><circle cx="1441.2" cy="1.7" r="1.5" fill="#fff" opacity="0.6"/><circle cx="1344.5" cy="210.5" r="1.1" fill="#fff" opacity="0.3"/><circle cx="313.2" cy="270.3" r="1" fill="#fff" opacity="0.3"/><circle cx="1176.6" cy="235.7" r="1.6" fill="#fff" opacity="0.9"/><circle cx="97.2" cy="56.4" r="1.6" fill="#fff" opacity="0.7"/><circle cx="1023.3" cy="16.9" r="0.9" fill="#fff" opacity="0.3"/><circle cx="801.1" cy="243.1" r="0.7" fill="#fff" opacity="0.6"/><circle cx="715.3" cy="326.5" r="1.1" fill="#fff" opacity="0.5"/><circle cx="1313.3" cy="106.2" r="0.7" fill="#fff" opacity="0.7"/><circle cx="251" cy="55.2" r="0.4" fill="#fff" opacity="0.9"/><circle cx="371.3" cy="211.6" r="1.4" fill="#fff" opacity="0.9"/><circle cx="191.7" cy="29.6" r="1.4" fill="#fff" opacity="0.8"/><circle cx="658" cy="32.5" r="0.5" fill="#fff" opacity="0.9"/><circle cx="1109.5" cy="253.2" r="1.3" fill="#fff" opacity="0.8"/><circle cx="435.2" cy="68.4" r="1.3" fill="#fff" opacity="0.4"/><circle cx="1082.2" cy="323.4" r="0.4" fill="#fff" opacity="0.9"/><circle cx="107.6" cy="176.8" r="1.5" fill="#fff" opacity="0.8"/><circle cx="266.7" cy="293" r="1.6" fill="#fff" opacity="0.6"/><circle cx="746.7" cy="154.9" r="3.4" fill="#fff" opacity="0.6"/><circle cx="181.9" cy="29.6" r="0.6" fill="#fff" opacity="1"/><circle cx="444.6" cy="312.8" r="1.1" fill="#fff" opacity="0.4"/><circle cx="121" cy="147.9" r="0.7" fill="#fff" opacity="0.6"/><circle cx="252.8" cy="300.3" r="0.8" fill="#fff" opacity="0.7"/><circle cx="668.5" cy="190.5" r="1.6" fill="#fff" opacity="0.7"/><circle cx="1815.1" cy="101" r="1" fill="#fff" opacity="0.6"/><circle cx="455.1" cy="211.8" r="0.6" fill="#fff" opacity="0.3"/><circle cx="306.6" cy="71.3" r="1.3" fill="#fff" opacity="0.6"/><circle cx="1162.1" cy="226.1" r="1.1" fill="#fff" opacity="0.6"/><circle cx="631.7" cy="237.9" r="1.5" fill="#fff" opacity="0.4"/><circle cx="1309.5" cy="33.4" r="1" fill="#fff" opacity="0.9"/><circle cx="1722.2" cy="128.3" r="0.6" fill="#fff" opacity="0.8"/><circle cx="1854.6" cy="148.5" r="1.3" fill="#fff" opacity="0.5"/><circle cx="1351.1" cy="16.5" r="1.3" fill="#fff" opacity="0.8"/><circle cx="1452.5" cy="143.9" r="0.9" fill="#fff" opacity="1"/><circle cx="182.9" cy="56.5" r="0.5" fill="#fff" opacity="0.3"/><circle cx="1248.2" cy="97.8" r="1.9" fill="#fff" opacity="0.5"/><circle cx="1171.7" cy="326.1" r="1.3" fill="#fff" opacity="0.7"/><circle cx="753.7" cy="96.2" r="1.1" fill="#fff" opacity="0.9"/><circle cx="846.6" cy="224.9" r="1.1" fill="#fff" opacity="0.7"/><circle cx="537.3" cy="100.4" r="1.2" fill="#fff" opacity="0.4"/><circle cx="189.2" cy="191.1" r="0.9" fill="#fff" opacity="0.6"/><circle cx="113.7" cy="131" r="0.5" fill="#fff" opacity="0.9"/><circle cx="659.9" cy="116" r="1.5" fill="#fff" opacity="0.7"/><circle cx="1060.9" cy="265.6" r="0.8" fill="#fff" opacity="0.8"/><circle cx="1201.5" cy="55" r="1.5" fill="#fff" opacity="0.4"/><circle cx="1632.3" cy="52" r="0.7" fill="#fff" opacity="0.4"/><circle cx="1434.1" cy="7.2" r="1.4" fill="#fff" opacity="0.6"/><circle cx="1542.1" cy="158" r="0.7" fill="#fff" opacity="0.3"/><circle cx="725.4" cy="167.8" r="0.4" fill="#fff" opacity="0.3"/><circle cx="470.3" cy="116.8" r="1.5" fill="#fff" opacity="0.4"/><circle cx="796.7" cy="253.7" r="0.4" fill="#fff" opacity="0.8"/><circle cx="902.3" cy="104.1" r="1.4" fill="#fff" opacity="0.7"/><circle cx="755.9" cy="235.4" r="1.2" fill="#fff" opacity="0.6"/><circle cx="1854.2" cy="102.6" r="0.9" fill="#fff" opacity="0.7"/><circle cx="243.3" cy="211" r="1.2" fill="#fff" opacity="0.5"/><circle cx="377.4" cy="321.9" r="1.3" fill="#fff" opacity="0.6"/><circle cx="24" cy="295.4" r="0.7" fill="#fff" opacity="0.4"/><circle cx="1694.7" cy="50.4" r="1.4" fill="#fff" opacity="0.9"/><circle cx="677.5" cy="117.2" r="1.1" fill="#fff" opacity="0.4"/><circle cx="117.7" cy="99.5" r="0.7" fill="#fff" opacity="0.7"/><circle cx="1002.5" cy="209.3" r="0.7" fill="#fff" opacity="0.8"/><circle cx="838" cy="39.4" r="1.8" fill="#fff" opacity="0.8"/><circle cx="1229.9" cy="87.2" r="0.6" fill="#fff" opacity="0.4"/><circle cx="457.5" cy="78.1" r="0.6" fill="#fff" opacity="0.3"/><circle cx="620.6" cy="173.4" r="0.5" fill="#fff" opacity="0.5"/><circle cx="1371.7" cy="96.1" r="2.8" fill="#fff" opacity="0.8"/><circle cx="748.4" cy="256.4" r="1.5" fill="#fff" opacity="0.4"/><circle cx="554.7" cy="23.1" r="1.5" fill="#fff" opacity="0.9"/><circle cx="1.2" cy="49.8" r="0.7" fill="#fff" opacity="0.6"/><circle cx="1355.2" cy="225.1" r="1.2" fill="#fff" opacity="0.7"/><circle cx="1854.7" cy="217.9" r="1.5" fill="#fff" opacity="0.4"/><circle cx="972" cy="270.2" r="0.8" fill="#fff" opacity="1"/><circle cx="753.8" cy="316.6" r="0.7" fill="#fff" opacity="0.7"/><circle cx="1229.6" cy="189.8" r="0.6" fill="#fff" opacity="0.6"/><circle cx="1824.1" cy="48.3" r="1" fill="#fff" opacity="0.5"/><circle cx="614.3" cy="91.9" r="1.4" fill="#fff" opacity="0.3"/><circle cx="1714.6" cy="96.5" r="1.4" fill="#fff" opacity="0.6"/><circle cx="784.1" cy="243.4" r="0.9" fill="#fff" opacity="0.4"/><circle cx="1827.8" cy="53.6" r="0.7" fill="#fff" opacity="0.3"/><circle cx="9.2" cy="276.4" r="0.7" fill="#fff" opacity="0.8"/><circle cx="10.9" cy="23.9" r="1.3" fill="#fff" opacity="0.4"/><circle cx="1793.4" cy="289.8" r="0.4" fill="#fff" opacity="0.8"/><circle cx="1480.3" cy="87.3" r="1.1" fill="#fff" opacity="0.3"/><circle cx="531.6" cy="136.6" r="0.5" fill="#fff" opacity="0.5"/><circle cx="918" cy="293.9" r="1.4" fill="#fff" opacity="0.8"/><circle cx="1277.7" cy="5.8" r="1" fill="#fff" opacity="0.6"/><circle cx="724.6" cy="212.1" r="1.4" fill="#fff" opacity="0.6"/><circle cx="1876" cy="68.3" r="1.1" fill="#fff" opacity="0.4"/><circle cx="586" cy="253.5" r="1" fill="#fff" opacity="1"/><circle cx="235" cy="232.6" r="0.8" fill="#fff" opacity="0.6"/><circle cx="42" cy="188.8" r="0.5" fill="#fff" opacity="0.4"/><circle cx="1642" cy="282.4" r="0.8" fill="#fff" opacity="0.4"/><circle cx="531.4" cy="51.4" r="0.9" fill="#fff" opacity="0.9"/><circle cx="170.1" cy="172.1" r="1.1" fill="#fff" opacity="0.7"/><circle cx="960" cy="529.6" r="170" fill="url(#sun)"/><rect x="790" y="546.6" width="340" height="3" fill="#ffc27a" opacity=".85"/><rect x="790" y="572.1" width="340" height="5.5" fill="#ffc27a" opacity=".85"/><rect x="790" y="597.6" width="340" height="8" fill="#ffc27a" opacity=".85"/><rect x="790" y="623.1" width="340" height="10.5" fill="#ffc27a" opacity=".85"/><rect x="790" y="648.6" width="340" height="13" fill="#ffc27a" opacity=".85"/><rect x="790" y="674.1" width="340" height="15.5" fill="#ffc27a" opacity=".85"/><ellipse cx="936.4" cy="394.3" rx="362.7" ry="23" fill="#ff9fb0" opacity="0.4" filter="url(#blur8)"/><ellipse cx="806.2" cy="394.1" rx="465.2" ry="17.7" fill="#ff9fb0" opacity="0.6" filter="url(#blur8)"/><ellipse cx="1329.2" cy="305" rx="185.1" ry="12.8" fill="#ff9fb0" opacity="0.5" filter="url(#blur8)"/><ellipse cx="734.9" cy="367.9" rx="431.3" ry="17.2" fill="#ff9fb0" opacity="0.6" filter="url(#blur8)"/><ellipse cx="14.5" cy="431.4" rx="462.1" ry="20.4" fill="#ff9fb0" opacity="0.6" filter="url(#blur8)"/><ellipse cx="354.3" cy="334.1" rx="239.1" ry="16.6" fill="#ff9fb0" opacity="0.4" filter="url(#blur8)"/><ellipse cx="783.7" cy="277.5" rx="257.2" ry="9.5" fill="#ff9fb0" opacity="0.5" filter="url(#blur8)"/><ellipse cx="1263.7" cy="410.2" rx="496.7" ry="9.9" fill="#ff9fb0" opacity="0.4" filter="url(#blur8)"/><ellipse cx="1116.3" cy="113.6" rx="542.2" ry="19" fill="#ff9fb0" opacity="0.4" filter="url(#blur8)"/><g opacity=".95"><rect x="-20" y="530.3" width="75.3" height="143.3" fill="#2a0f3f"/><rect x="15.7" y="461.5" width="4" height="100" fill="#2a0f3f"/><rect x="56.3" y="369.6" width="101.3" height="304" fill="#2a0f3f"/><rect x="159.6" y="589.4" width="133.6" height="84.2" fill="#2a0f3f"/><rect x="224.4" y="506.7" width="4" height="100" fill="#2a0f3f"/><rect x="298.3" y="527.5" width="142.2" height="146.1" fill="#2a0f3f"/><path d="M298.3 527.5 L369.4 456.4 L440.5 527.5 Z" fill="#2a0f3f"/><rect x="443.7" y="493.7" width="137.2" height="179.9" fill="#2a0f3f"/><rect x="586.6" y="526.1" width="79.3" height="147.5" fill="#2a0f3f"/><rect x="668.5" y="591.2" width="147.6" height="82.4" fill="#2a0f3f"/><rect x="740.3" y="532.1" width="4" height="100" fill="#2a0f3f"/><rect x="820.2" y="594.6" width="40.8" height="79" fill="#2a0f3f"/><rect x="838.6" y="544.4" width="4" height="100" fill="#2a0f3f"/><rect x="864.1" y="463" width="80.5" height="210.6" fill="#2a0f3f"/><rect x="950" y="451.6" width="133.5" height="222" fill="#2a0f3f"/><rect x="1088.5" y="515.6" width="142.6" height="158" fill="#2a0f3f"/><path d="M1088.5 515.6 L1159.8 444.3 L1231.1 515.6 Z" fill="#2a0f3f"/><rect x="1232.8" y="545.3" width="141" height="128.3" fill="#2a0f3f"/><rect x="1374.6" y="586.8" width="120.9" height="86.8" fill="#2a0f3f"/><rect x="1498" y="610.7" width="149.4" height="62.9" fill="#2a0f3f"/><path d="M1498 610.7 L1572.7 536.1 L1647.4 610.7 Z" fill="#2a0f3f"/><rect x="1647.6" y="509.4" width="72.3" height="164.2" fill="#2a0f3f"/><rect x="1725.8" y="510" width="83.1" height="163.6" fill="#2a0f3f"/><rect x="1811.9" y="419.7" width="89.8" height="253.9" fill="#2a0f3f"/><rect x="1905.4" y="576.3" width="50.5" height="97.3" fill="#2a0f3f"/><rect x="106.3" y="413.6" width="6" height="8" fill="#ff7ab8" opacity="0.8"/><rect x="64.3" y="461.6" width="6" height="8" fill="#ff7ab8" opacity="0.6"/><rect x="92.3" y="493.6" width="6" height="8" fill="#ff7ab8" opacity="0.6"/><rect x="64.3" y="573.6" width="6" height="8" fill="#ff7ab8" opacity="0.6"/><rect x="64.3" y="589.6" width="6" height="8" fill="#ffcf7a" opacity="0.6"/><rect x="181.6" y="601.4" width="6" height="8" fill="#ffcf7a" opacity="0.8"/><rect x="265.6" y="617.4" width="6" height="8" fill="#ffcf7a" opacity="1"/><rect x="167.6" y="633.4" width="6" height="8" fill="#ff7ab8" opacity="0.8"/><rect x="237.6" y="649.4" width="6" height="8" fill="#ff7ab8" opacity="0.8"/><rect x="334.3" y="555.5" width="6" height="8" fill="#ff7ab8" opacity="0.6"/><rect x="348.3" y="571.5" width="6" height="8" fill="#ff7ab8" opacity="0.9"/><rect x="465.7" y="569.7" width="6" height="8" fill="#ff7ab8" opacity="0.8"/><rect x="549.7" y="569.7" width="6" height="8" fill="#ff7ab8" opacity="1"/><rect x="563.7" y="569.7" width="6" height="8" fill="#ffcf7a" opacity="0.7"/><rect x="535.7" y="601.7" width="6" height="8" fill="#ffcf7a" opacity="0.8"/><rect x="521.7" y="633.7" width="6" height="8" fill="#ffcf7a" opacity="0.9"/><rect x="622.6" y="602.1" width="6" height="8" fill="#ff7ab8" opacity="0.5"/><rect x="636.6" y="602.1" width="6" height="8" fill="#ffcf7a" opacity="0.9"/><rect x="650.6" y="602.1" width="6" height="8" fill="#ffcf7a" opacity="0.8"/><rect x="594.6" y="618.1" width="6" height="8" fill="#ff7ab8" opacity="0.5"/><rect x="842.2" y="606.6" width="6" height="8" fill="#ff7ab8" opacity="0.9"/><rect x="928.1" y="523" width="6" height="8" fill="#ffcf7a" opacity="0.6"/><rect x="928.1" y="555" width="6" height="8" fill="#ff7ab8" opacity="0.7"/><rect x="928.1" y="635" width="6" height="8" fill="#ffcf7a" opacity="0.9"/><rect x="1028" y="463.6" width="6" height="8" fill="#ffcf7a" opacity="0.9"/><rect x="1070" y="463.6" width="6" height="8" fill="#ff7ab8" opacity="0.6"/><rect x="1014" y="479.6" width="6" height="8" fill="#ffcf7a" opacity="0.5"/><rect x="986" y="559.6" width="6" height="8" fill="#ff7ab8" opacity="0.8"/><rect x="1000" y="559.6" width="6" height="8" fill="#ff7ab8" opacity="0.7"/><rect x="1056" y="559.6" width="6" height="8" fill="#ffcf7a" opacity="0.5"/><rect x="1056" y="575.6" width="6" height="8" fill="#ffcf7a" opacity="0.9"/><rect x="972" y="591.6" width="6" height="8" fill="#ff7ab8" opacity="0.6"/><rect x="1056" y="623.6" width="6" height="8" fill="#ffcf7a" opacity="0.9"/><rect x="1138.5" y="543.6" width="6" height="8" fill="#ff7ab8" opacity="0.6"/><rect x="1166.5" y="607.6" width="6" height="8" fill="#ffcf7a" opacity="0.8"/><rect x="1152.5" y="655.6" width="6" height="8" fill="#ff7ab8" opacity="0.6"/><rect x="1324.8" y="589.3" width="6" height="8" fill="#ff7ab8" opacity="0.5"/><rect x="1296.8" y="605.3" width="6" height="8" fill="#ff7ab8" opacity="0.5"/><rect x="1352.8" y="637.3" width="6" height="8" fill="#ff7ab8" opacity="0.8"/><rect x="1410.6" y="646.8" width="6" height="8" fill="#ff7ab8" opacity="0.9"/><rect x="1506" y="654.7" width="6" height="8" fill="#ff7ab8" opacity="0.7"/><rect x="1655.6" y="553.4" width="6" height="8" fill="#ffcf7a" opacity="0.6"/><rect x="1655.6" y="617.4" width="6" height="8" fill="#ffcf7a" opacity="0.6"/><rect x="1761.8" y="538" width="6" height="8" fill="#ff7ab8" opacity="1"/><rect x="1733.8" y="554" width="6" height="8" fill="#ff7ab8" opacity="0.5"/><rect x="1775.8" y="586" width="6" height="8" fill="#ffcf7a" opacity="0.6"/><rect x="1789.8" y="586" width="6" height="8" fill="#ffcf7a" opacity="0.9"/><rect x="1861.9" y="591.7" width="6" height="8" fill="#ffcf7a" opacity="0.7"/><rect x="1927.4" y="588.3" width="6" height="8" fill="#ff7ab8" opacity="0.7"/></g><rect y="669.6" width="1920" height="410.4" fill="url(#sea)"/><rect x="835.9" y="675.6" width="277.6" height="2" rx="2" fill="#ffd08a" opacity="0.8"/><rect x="809.3" y="676" width="273.7" height="2.1" rx="2" fill="#ffd08a" opacity="0.7"/><rect x="800" y="677" width="284.5" height="2.2" rx="2" fill="#ffd08a" opacity="0.7"/><rect x="844.3" y="678.8" width="268.4" height="2.4" rx="2" fill="#ffd08a" opacity="0.7"/><rect x="818.1" y="681.4" width="290.4" height="2.5" rx="2" fill="#ffd08a" opacity="0.7"/><rect x="823" y="684.6" width="277.6" height="2.6" rx="2" fill="#ffd08a" opacity="0.7"/><rect x="851.1" y="688.6" width="198.7" height="2.7" rx="2" fill="#ffd08a" opacity="0.6"/><rect x="882.2" y="693.2" width="146.6" height="2.8" rx="2" fill="#ffd08a" opacity="0.6"/><rect x="863.8" y="698.6" width="197.2" height="3" rx="2" fill="#ffd08a" opacity="0.6"/><rect x="837.9" y="704.8" width="218.2" height="3.1" rx="2" fill="#ffd08a" opacity="0.6"/><rect x="898.7" y="711.6" width="138" height="3.2" rx="2" fill="#ffd08a" opacity="0.6"/><rect x="900.7" y="719.2" width="132.9" height="3.3" rx="2" fill="#ffd08a" opacity="0.6"/><rect x="864.3" y="727.4" width="223.6" height="3.4" rx="2" fill="#ffd08a" opacity="0.5"/><rect x="855.6" y="736.4" width="226.4" height="3.6" rx="2" fill="#ffd08a" opacity="0.5"/><rect x="876.4" y="746.2" width="183.4" height="3.7" rx="2" fill="#ffd08a" opacity="0.5"/><rect x="890.2" y="756.6" width="124.2" height="3.8" rx="2" fill="#ffd08a" opacity="0.5"/><rect x="905" y="767.8" width="135.9" height="3.9" rx="2" fill="#ffd08a" opacity="0.5"/><rect x="860" y="779.6" width="200.8" height="4" rx="2" fill="#ffd08a" opacity="0.5"/><rect x="876" y="792.2" width="151.6" height="4.2" rx="2" fill="#ffd08a" opacity="0.4"/><rect x="871.3" y="805.6" width="174.2" height="4.3" rx="2" fill="#ffd08a" opacity="0.4"/><rect x="879.2" y="819.6" width="146.1" height="4.4" rx="2" fill="#ffd08a" opacity="0.4"/><rect x="889.4" y="834.4" width="133.7" height="4.5" rx="2" fill="#ffd08a" opacity="0.4"/><rect x="893.3" y="849.8" width="172.6" height="4.6" rx="2" fill="#ffd08a" opacity="0.4"/><rect x="894.5" y="866" width="123.8" height="4.8" rx="2" fill="#ffd08a" opacity="0.4"/><rect x="906.9" y="883" width="112.1" height="4.9" rx="2" fill="#ffd08a" opacity="0.3"/><rect x="913" y="900.6" width="114.5" height="5" rx="2" fill="#ffd08a" opacity="0.3"/><rect x="915.7" y="919" width="126.4" height="5.1" rx="2" fill="#ffd08a" opacity="0.3"/><rect x="894.4" y="938" width="138" height="5.2" rx="2" fill="#ffd08a" opacity="0.3"/><rect x="906.7" y="957.8" width="138" height="5.4" rx="2" fill="#ffd08a" opacity="0.3"/><rect x="901.4" y="978.4" width="99.1" height="5.5" rx="2" fill="#ffd08a" opacity="0.3"/><rect x="941.5" y="999.6" width="67.4" height="5.6" rx="2" fill="#ffd08a" opacity="0.2"/><rect x="917.1" y="1021.6" width="93.1" height="5.7" rx="2" fill="#ffd08a" opacity="0.2"/><rect x="912.9" y="1044.2" width="96.3" height="5.8" rx="2" fill="#ffd08a" opacity="0.2"/><rect x="917.4" y="1067.6" width="90.8" height="6" rx="2" fill="#ffd08a" opacity="0.2"/><rect x="910" y="1091.8" width="81.5" height="6.1" rx="2" fill="#ffd08a" opacity="0.2"/><rect x="920.6" y="1116.6" width="70.4" height="6.2" rx="2" fill="#ffd08a" opacity="0.2"/><rect x="936.1" y="1142.2" width="54.6" height="6.3" rx="2" fill="#ffd08a" opacity="0.1"/><rect x="924.7" y="1168.4" width="74.7" height="6.4" rx="2" fill="#ffd08a" opacity="0.1"/><rect x="1478.1" y="905.6" width="95.4" height="1.6" fill="#fff" opacity="0.1"/><rect x="737.5" y="702.2" width="126.3" height="1.6" fill="#fff" opacity="0.1"/><rect x="1169.9" y="1041.7" width="132.4" height="1.6" fill="#fff" opacity="0.1"/><rect x="888.8" y="739.1" width="120.7" height="1.6" fill="#fff" opacity="0.2"/><rect x="309.8" y="686.2" width="24.3" height="1.6" fill="#fff" opacity="0.2"/><rect x="570.5" y="779.1" width="20.7" height="1.6" fill="#fff" opacity="0.1"/><rect x="293.3" y="707" width="81.5" height="1.6" fill="#fff" opacity="0.1"/><rect x="566.7" y="889" width="54.2" height="1.6" fill="#fff" opacity="0.1"/><rect x="1580.4" y="1076.6" width="116.2" height="1.6" fill="#fff" opacity="0.2"/><rect x="170.8" y="813.4" width="44.4" height="1.6" fill="#fff" opacity="0.1"/><rect x="93.4" y="969.5" width="86.1" height="1.6" fill="#fff" opacity="0.1"/><rect x="543.3" y="680.6" width="35.4" height="1.6" fill="#fff" opacity="0.1"/><rect x="1584.4" y="1088" width="75.2" height="1.6" fill="#fff" opacity="0.1"/><rect x="698.4" y="845.7" width="59.7" height="1.6" fill="#fff" opacity="0.1"/><rect x="1658.1" y="680.3" width="26.8" height="1.6" fill="#fff" opacity="0.2"/><rect x="1273" y="702.4" width="123.4" height="1.6" fill="#fff" opacity="0.1"/><rect x="425.6" y="891.4" width="66.4" height="1.6" fill="#fff" opacity="0.2"/><rect x="1327.7" y="848.9" width="44.1" height="1.6" fill="#fff" opacity="0.2"/><rect x="1536.7" y="760.1" width="81" height="1.6" fill="#fff" opacity="0.1"/><rect x="952.1" y="997.6" width="59.2" height="1.6" fill="#fff" opacity="0.1"/><rect x="1227.4" y="855.9" width="107.8" height="1.6" fill="#fff" opacity="0.2"/><rect x="879.9" y="760.4" width="97.8" height="1.6" fill="#fff" opacity="0.2"/><rect x="1019.4" y="810.5" width="32.3" height="1.6" fill="#fff" opacity="0.1"/><rect x="1880.8" y="1045.3" width="83.8" height="1.6" fill="#fff" opacity="0.1"/><rect x="424.8" y="695.4" width="131.4" height="1.6" fill="#fff" opacity="0.2"/><rect x="372.2" y="697.9" width="84.8" height="1.6" fill="#fff" opacity="0.1"/><rect x="1690.9" y="685.1" width="62.2" height="1.6" fill="#fff" opacity="0.1"/><rect x="1424.5" y="933.1" width="125.9" height="1.6" fill="#fff" opacity="0.2"/><rect x="1528.7" y="1059.9" width="41.2" height="1.6" fill="#fff" opacity="0.1"/><rect x="750.1" y="718.1" width="49.3" height="1.6" fill="#fff" opacity="0.2"/><rect x="842.8" y="878.3" width="25.5" height="1.6" fill="#fff" opacity="0.1"/><rect x="180.1" y="752.9" width="60.5" height="1.6" fill="#fff" opacity="0.1"/><rect x="1436.5" y="804.3" width="132.3" height="1.6" fill="#fff" opacity="0.2"/><rect x="116.3" y="842.8" width="108.5" height="1.6" fill="#fff" opacity="0.1"/><rect x="1754.6" y="785.7" width="81" height="1.6" fill="#fff" opacity="0.2"/><rect x="1895.9" y="687.3" width="31.1" height="1.6" fill="#fff" opacity="0.1"/><rect x="1716.9" y="1060.4" width="119.2" height="1.6" fill="#fff" opacity="0.1"/><rect x="702.8" y="772.4" width="91.1" height="1.6" fill="#fff" opacity="0.1"/><rect x="722.4" y="901.9" width="86.5" height="1.6" fill="#fff" opacity="0.2"/><rect x="1874.5" y="784.2" width="136" height="1.6" fill="#fff" opacity="0.2"/><rect x="544.3" y="796.3" width="103" height="1.6" fill="#fff" opacity="0.1"/><rect x="388.4" y="912.7" width="133.5" height="1.6" fill="#fff" opacity="0.1"/><rect x="637" y="1089.2" width="138.9" height="1.6" fill="#fff" opacity="0.1"/><rect x="582.5" y="703.5" width="56" height="1.6" fill="#fff" opacity="0.2"/><rect x="1552.6" y="789.9" width="99" height="1.6" fill="#fff" opacity="0.1"/><rect x="706.3" y="1073.4" width="117.5" height="1.6" fill="#fff" opacity="0.1"/><rect x="1439.1" y="778.7" width="113.3" height="1.6" fill="#fff" opacity="0.2"/><rect x="923.7" y="1064" width="126.3" height="1.6" fill="#fff" opacity="0.1"/><rect x="553.6" y="917.5" width="59.2" height="1.6" fill="#fff" opacity="0.2"/><rect x="242.6" y="838" width="99.1" height="1.6" fill="#fff" opacity="0.1"/><rect x="1232.2" y="681.3" width="55.9" height="1.6" fill="#fff" opacity="0.1"/><rect x="1013.5" y="1007.6" width="96" height="1.6" fill="#fff" opacity="0.1"/><rect x="177.7" y="781.1" width="47.4" height="1.6" fill="#fff" opacity="0.1"/><rect x="753.2" y="953" width="95.9" height="1.6" fill="#fff" opacity="0.1"/><rect x="1122.8" y="766.8" width="80.9" height="1.6" fill="#fff" opacity="0.2"/><rect x="1611.9" y="811.1" width="61.7" height="1.6" fill="#fff" opacity="0.1"/><rect x="516.2" y="849.9" width="58" height="1.6" fill="#fff" opacity="0.1"/><rect x="1401.6" y="699.8" width="93.9" height="1.6" fill="#fff" opacity="0.1"/><rect x="682.1" y="690.1" width="66.7" height="1.6" fill="#fff" opacity="0.2"/><rect x="672.3" y="769.9" width="55.3" height="1.6" fill="#fff" opacity="0.1"/><rect x="1055.7" y="752.3" width="53.5" height="1.6" fill="#fff" opacity="0.2"/><rect x="1708.1" y="979.2" width="107.7" height="1.6" fill="#fff" opacity="0.1"/><rect x="785.9" y="1016.8" width="85.4" height="1.6" fill="#fff" opacity="0.1"/><rect x="1508" y="857.4" width="69.5" height="1.6" fill="#fff" opacity="0.1"/><rect x="1814.6" y="693.5" width="85.7" height="1.6" fill="#fff" opacity="0.1"/><rect x="655.4" y="706.4" width="63.6" height="1.6" fill="#fff" opacity="0.2"/><rect x="1258.4" y="1018.6" width="91.8" height="1.6" fill="#fff" opacity="0.1"/><rect x="1312.1" y="800.5" width="87.1" height="1.6" fill="#fff" opacity="0.1"/><rect x="313.2" y="945.6" width="88.9" height="1.6" fill="#fff" opacity="0.1"/><rect x="1796.3" y="1025.3" width="59.6" height="1.6" fill="#fff" opacity="0.2"/><rect x="541.4" y="1072.4" width="52.3" height="1.6" fill="#fff" opacity="0.1"/><rect x="839" y="917.5" width="46.5" height="1.6" fill="#fff" opacity="0.1"/><rect x="1390.3" y="928.4" width="57" height="1.6" fill="#fff" opacity="0.1"/><rect x="142.6" y="735.9" width="38.8" height="1.6" fill="#fff" opacity="0.2"/><rect x="1705.9" y="722.9" width="102" height="1.6" fill="#fff" opacity="0.1"/><rect x="1251.5" y="1002.1" width="106.1" height="1.6" fill="#fff" opacity="0.1"/><rect x="697" y="847.7" width="30.7" height="1.6" fill="#fff" opacity="0.1"/><rect x="417.5" y="781.4" width="31.6" height="1.6" fill="#fff" opacity="0.1"/><rect x="833.2" y="702" width="70" height="1.6" fill="#fff" opacity="0.1"/><rect x="264" y="864.7" width="64.1" height="1.6" fill="#fff" opacity="0.1"/><rect x="1917.7" y="751.7" width="61.1" height="1.6" fill="#fff" opacity="0.1"/><rect x="568.6" y="700.4" width="132.6" height="1.6" fill="#fff" opacity="0.1"/><rect x="1814.6" y="1029.3" width="91.4" height="1.6" fill="#fff" opacity="0.1"/><rect x="838" y="766.7" width="32.5" height="1.6" fill="#fff" opacity="0.1"/><rect x="485.4" y="881.6" width="116.6" height="1.6" fill="#fff" opacity="0.1"/><rect x="1655.4" y="878.2" width="131.9" height="1.6" fill="#fff" opacity="0.1"/><rect x="305.1" y="710.9" width="83.8" height="1.6" fill="#fff" opacity="0.2"/><rect x="159.2" y="746.1" width="71.6" height="1.6" fill="#fff" opacity="0.1"/><rect x="981.8" y="748.3" width="20.2" height="1.6" fill="#fff" opacity="0.2"/><rect x="784.8" y="947.5" width="25.6" height="1.6" fill="#fff" opacity="0.1"/><path d="M0 1080 L0 928.8 Q480 864 960 972 T1920 907.1999999999999 L1920 1080 Z" fill="#12061f"/><path d="M106.1 1090 Q127.2 680 171.3 270 L179.1 270 Q145.4 680 124.3 1090 Z" fill="#0b0416"/><path d="M175.2 270 Q90.5 197.3 5.8 307.1 Q90.5 220.7 175.2 270 Z" fill="#0b0416"/><path d="M175.2 270 Q114.1 175.2 53 274.2 Q114.1 198.6 175.2 270 Z" fill="#0b0416"/><path d="M175.2 270 Q118.4 144.1 61.6 253.3 Q118.4 167.5 175.2 270 Z" fill="#0b0416"/><path d="M175.2 270 Q153.9 140.2 132.5 240.3 Q153.9 163.6 175.2 270 Z" fill="#0b0416"/><path d="M175.2 270 Q185.9 114.5 196.5 228.5 Q185.9 137.9 175.2 270 Z" fill="#0b0416"/><path d="M175.2 270 Q233 134.4 290.9 248.5 Q233 157.8 175.2 270 Z" fill="#0b0416"/><path d="M175.2 270 Q239.2 169.7 303.1 272.1 Q239.2 193.1 175.2 270 Z" fill="#0b0416"/><path d="M175.2 270 Q265.6 181.7 356 297.2 Q265.6 205.1 175.2 270 Z" fill="#0b0416"/><path d="M175.2 270 Q249.8 222.7 324.4 326 Q249.8 246.1 175.2 270 Z" fill="#0b0416"/><path d="M300.2 1090 Q331.2 780 424.2 470 L430.2 470 Q345.2 780 314.2 1090 Z" fill="#0b0416"/><path d="M427.2 470 Q347.8 421.7 268.3 515.7 Q347.8 439.7 427.2 470 Z" fill="#0b0416"/><path d="M427.2 470 Q356.6 376.9 286 472.8 Q356.6 394.9 427.2 470 Z" fill="#0b0416"/><path d="M427.2 470 Q384.4 378 341.7 459.3 Q384.4 396 427.2 470 Z" fill="#0b0416"/><path d="M427.2 470 Q420 366.8 412.8 444.6 Q420 384.8 427.2 470 Z" fill="#0b0416"/><path d="M427.2 470 Q428.7 373.8 430.2 447.1 Q428.7 391.8 427.2 470 Z" fill="#0b0416"/><path d="M427.2 470 Q465.9 351.6 504.6 444.5 Q465.9 369.6 427.2 470 Z" fill="#0b0416"/><path d="M427.2 470 Q468.5 394.5 509.8 468.4 Q468.5 412.5 427.2 470 Z" fill="#0b0416"/><path d="M427.2 470 Q486.4 415.9 545.7 496.2 Q486.4 433.9 427.2 470 Z" fill="#0b0416"/><path d="M427.2 470 Q493.5 443 559.7 530.3 Q493.5 461 427.2 470 Z" fill="#0b0416"/><path d="M1642.8 1090 Q1633.2 710 1557.6 330 L1564.8 330 Q1650 710 1659.6 1090 Z" fill="#0b0416"/><path d="M1561.2 330 Q1459.5 253.3 1357.7 371.4 Q1459.5 274.9 1561.2 330 Z" fill="#0b0416"/><path d="M1561.2 330 Q1471.2 230.8 1381.1 345.3 Q1471.2 252.4 1561.2 330 Z" fill="#0b0416"/><path d="M1561.2 330 Q1508.6 216.9 1456.1 316.3 Q1508.6 238.5 1561.2 330 Z" fill="#0b0416"/><path d="M1561.2 330 Q1526.3 193.1 1491.4 298.5 Q1526.3 214.7 1561.2 330 Z" fill="#0b0416"/><path d="M1561.2 330 Q1564.3 186.2 1567.4 291.2 Q1564.3 207.8 1561.2 330 Z" fill="#0b0416"/><path d="M1561.2 330 Q1609.7 203.8 1658.2 307.8 Q1609.7 225.4 1561.2 330 Z" fill="#0b0416"/><path d="M1561.2 330 Q1622.2 241.9 1683.3 336.2 Q1622.2 263.5 1561.2 330 Z" fill="#0b0416"/><path d="M1561.2 330 Q1660.4 269.7 1759.6 385.2 Q1660.4 291.3 1561.2 330 Z" fill="#0b0416"/><path d="M1561.2 330 Q1654.4 307.4 1747.5 424 Q1654.4 329 1561.2 330 Z" fill="#0b0416"/><path d="M1817.7 1090 Q1816 810 1781.3 530 L1786.7 530 Q1828.6 810 1830.3 1090 Z" fill="#0b0416"/><path d="M1784 530 Q1726.9 479.3 1669.9 554.2 Q1726.9 495.5 1784 530 Z" fill="#0b0416"/><path d="M1784 530 Q1736.5 472.7 1689 542.3 Q1736.5 488.9 1784 530 Z" fill="#0b0416"/><path d="M1784 530 Q1737.9 442.4 1691.8 521.2 Q1737.9 458.6 1784 530 Z" fill="#0b0416"/><path d="M1784 530 Q1765.5 419.4 1747 501.4 Q1765.5 435.6 1784 530 Z" fill="#0b0416"/><path d="M1784 530 Q1792.1 435.9 1800.2 506.8 Q1792.1 452.1 1784 530 Z" fill="#0b0416"/><path d="M1784 530 Q1822.7 435.9 1861.5 514.5 Q1822.7 452.1 1784 530 Z" fill="#0b0416"/><path d="M1784 530 Q1829.6 456.9 1875.2 529.7 Q1829.6 473.1 1784 530 Z" fill="#0b0416"/><path d="M1784 530 Q1845.1 482.8 1906.3 560.3 Q1845.1 499 1784 530 Z" fill="#0b0416"/><path d="M1784 530 Q1850.1 511.7 1916.2 596.2 Q1850.1 527.9 1784 530 Z" fill="#0b0416"/><rect width="1920" height="1080" fill="url(#glow)" opacity=".12"/>
<rect width="1920" height="1080" filter="url(#grain)"/>
</svg>